<svg width="40" height="40" viewBox="0 0 40 40" fill="none" xmlns="http://www.w3.org/2000/svg">
<path d="M27.8285 36.66H8.49518C7.81249 36.6628 7.13618 36.5286 6.50634 36.2652C5.8765 36.0018 5.30595 35.6146 4.82852 35.1267C4.34757 34.6422 3.96738 34.0673 3.70991 33.4351C3.45245 32.8029 3.32282 32.1259 3.32852 31.4433V12.1267C3.32 11.4471 3.4501 10.773 3.71087 10.1454C3.97164 9.51787 4.3576 8.95005 4.84518 8.47666C5.31959 7.99566 5.88656 7.6158 6.51185 7.36C7.14532 7.09509 7.82523 6.95911 8.51185 6.96H15.9119C16.2434 6.96 16.5613 7.09169 16.7957 7.32611C17.0302 7.56053 17.1619 7.87848 17.1619 8.21C17.1619 8.54152 17.0302 8.85946 16.7957 9.09388C16.5613 9.3283 16.2434 9.46 15.9119 9.46H8.51185C8.15337 9.46975 7.79881 9.53728 7.46185 9.66C6.97075 9.86729 6.552 10.2153 6.25838 10.6602C5.96475 11.1051 5.80938 11.6269 5.81185 12.16V31.4767C5.80768 31.8348 5.87478 32.1901 6.00927 32.522C6.14375 32.8539 6.34292 33.1558 6.59518 33.41C6.8474 33.6603 7.14654 33.8583 7.47544 33.9927C7.80435 34.1271 8.15655 34.1953 8.51185 34.1933H27.8452C28.2002 34.1933 28.5502 34.1267 28.8785 33.9933C29.2053 33.8621 29.5006 33.6633 29.7452 33.41C29.9985 33.1654 30.1973 32.8701 30.3285 32.5433C30.4758 32.2131 30.5497 31.8549 30.5452 31.4933V24.0933C30.5452 23.7618 30.6769 23.4439 30.9113 23.2094C31.1457 22.975 31.4637 22.8433 31.7952 22.8433C32.1267 22.8433 32.4446 22.975 32.6791 23.2094C32.9135 23.4439 33.0452 23.7618 33.0452 24.0933V31.5433C33.048 32.226 32.9138 32.9023 32.6504 33.5322C32.387 34.162 31.9998 34.7326 31.5119 35.21C31.0334 35.6903 30.4677 36.0749 29.8452 36.3433C29.2002 36.5767 28.5152 36.685 27.8285 36.66Z" fill="#4F4F4F"/>
<path d="M36.3461 9.09333C36.1762 8.66419 35.9145 8.27739 35.5794 7.96L31.9961 4.37666C31.6787 4.04157 31.2919 3.7799 30.8628 3.61C30.2179 3.33828 29.5064 3.2661 28.8202 3.40276C28.1339 3.53942 27.5043 3.87865 27.0128 4.37666L24.1628 7.22666V7.31L11.2628 20.1933C10.6115 20.8491 10.246 21.7358 10.2461 22.66V26.2767C10.2505 27.208 10.6224 28.0999 11.2809 28.7585C11.9395 29.417 12.8314 29.7889 13.7628 29.7933H17.3794C17.8387 29.7939 18.2934 29.7028 18.717 29.5254C19.1405 29.348 19.5244 29.0877 19.8461 28.76L32.7461 15.86L35.6128 12.9933C35.9494 12.6767 36.2128 12.29 36.3794 11.86C36.5702 11.4326 36.6687 10.9697 36.6687 10.5017C36.6687 10.0336 36.5702 9.57077 36.3794 9.14333L36.3461 9.09333ZM34.0461 10.8433C33.992 10.9693 33.9126 11.0827 33.8128 11.1767L31.7794 13.21L26.7794 8.21L28.8294 6.16C29.0263 5.96955 29.2889 5.86213 29.5628 5.86C29.6948 5.86219 29.8251 5.89052 29.9461 5.94333C30.075 5.99777 30.1861 6.07555 30.2794 6.17666L33.8794 9.76C33.9702 9.85789 34.0435 9.97064 34.0961 10.0933C34.1208 10.2199 34.1208 10.3501 34.0961 10.4767C34.1024 10.6009 34.0854 10.7253 34.0461 10.8433Z" fill="#4F4F4F"/>
</svg>
